<svg width="71" height="13" viewBox="0 0 71 13" fill="none" xmlns="http://www.w3.org/2000/svg">
<path d="M1.88636 12.4658H0.409091L4.68182 0.829456H6.13636L10.4091 12.4658H8.93182L5.45455 2.67037H5.36364L1.88636 12.4658ZM2.43182 7.92037H8.38636V9.17037H2.43182V7.92037ZM15.3352 12.6476C14.608 12.6476 13.9659 12.4639 13.4091 12.0965C12.8523 11.7253 12.4167 11.2026 12.1023 10.5283C11.7879 9.85029 11.6307 9.04915 11.6307 8.12491C11.6307 7.20824 11.7879 6.41279 12.1023 5.73855C12.4167 5.0643 12.8542 4.54347 13.4148 4.17605C13.9754 3.80862 14.6231 3.62491 15.358 3.62491C15.9261 3.62491 16.375 3.71961 16.7045 3.909C17.0379 4.09461 17.2917 4.30673 17.4659 4.54537C17.6439 4.78021 17.7822 4.9734 17.8807 5.12491H17.9943V0.829456H19.3352V12.4658H18.0398V11.1249H17.8807C17.7822 11.284 17.642 11.4848 17.4602 11.7272C17.2784 11.9658 17.0189 12.1798 16.6818 12.3692C16.3447 12.5548 15.8958 12.6476 15.3352 12.6476ZM15.517 11.4431C16.0549 11.4431 16.5095 11.3029 16.8807 11.0226C17.2519 10.7385 17.5341 10.3465 17.7273 9.8465C17.9205 9.34271 18.017 8.76127 18.017 8.10218C18.017 7.45067 17.9223 6.88059 17.733 6.39196C17.5436 5.89953 17.2633 5.51696 16.892 5.24423C16.5208 4.96771 16.0625 4.82946 15.517 4.82946C14.9489 4.82946 14.4754 4.97529 14.0966 5.26696C13.7216 5.55484 13.4394 5.94688 13.25 6.44309C13.0644 6.93552 12.9716 7.48855 12.9716 8.10218C12.9716 8.7234 13.0663 9.28779 13.2557 9.79537C13.4489 10.2992 13.733 10.7007 14.108 10.9999C14.4867 11.2954 14.9564 11.4431 15.517 11.4431ZM25.2727 12.6476C24.5455 12.6476 23.9034 12.4639 23.3466 12.0965C22.7898 11.7253 22.3542 11.2026 22.0398 10.5283C21.7254 9.85029 21.5682 9.04915 21.5682 8.12491C21.5682 7.20824 21.7254 6.41279 22.0398 5.73855C22.3542 5.0643 22.7917 4.54347 23.3523 4.17605C23.9129 3.80862 24.5606 3.62491 25.2955 3.62491C25.8636 3.62491 26.3125 3.71961 26.642 3.909C26.9754 4.09461 27.2292 4.30673 27.4034 4.54537C27.5814 4.78021 27.7197 4.9734 27.8182 5.12491H27.9318V0.829456H29.2727V12.4658H27.9773V11.1249H27.8182C27.7197 11.284 27.5795 11.4848 27.3977 11.7272C27.2159 11.9658 26.9564 12.1798 26.6193 12.3692C26.2822 12.5548 25.8333 12.6476 25.2727 12.6476ZM25.4545 11.4431C25.9924 11.4431 26.447 11.3029 26.8182 11.0226C27.1894 10.7385 27.4716 10.3465 27.6648 9.8465C27.858 9.34271 27.9545 8.76127 27.9545 8.10218C27.9545 7.45067 27.8598 6.88059 27.6705 6.39196C27.4811 5.89953 27.2008 5.51696 26.8295 5.24423C26.4583 4.96771 26 4.82946 25.4545 4.82946C24.8864 4.82946 24.4129 4.97529 24.0341 5.26696C23.6591 5.55484 23.3769 5.94688 23.1875 6.44309C23.0019 6.93552 22.9091 7.48855 22.9091 8.10218C22.9091 8.7234 23.0038 9.28779 23.1932 9.79537C23.3864 10.2992 23.6705 10.7007 24.0455 10.9999C24.4242 11.2954 24.8939 11.4431 25.4545 11.4431ZM35.9602 2.07946V0.829456H44.6875V2.07946H41.0284V12.4658H39.6193V2.07946H35.9602ZM48.0611 12.6704C47.508 12.6704 47.0062 12.5662 46.5554 12.3579C46.1046 12.1457 45.7467 11.8408 45.4815 11.4431C45.2164 11.0416 45.0838 10.5567 45.0838 9.98855C45.0838 9.48855 45.1823 9.08324 45.3793 8.77264C45.5762 8.45824 45.8395 8.21203 46.169 8.034C46.4986 7.85597 46.8622 7.7234 47.2599 7.63627C47.6615 7.54537 48.0649 7.4734 48.4702 7.42037C49.0005 7.35218 49.4304 7.30105 49.7599 7.26696C50.0933 7.22908 50.3357 7.16658 50.4872 7.07946C50.6425 6.99234 50.7202 6.84082 50.7202 6.62491V6.57946C50.7202 6.01885 50.5668 5.58324 50.2599 5.27264C49.9569 4.96203 49.4967 4.80673 48.8793 4.80673C48.2391 4.80673 47.7372 4.94688 47.3736 5.22718C47.0099 5.50749 46.7543 5.80673 46.6065 6.12491L45.3338 5.67037C45.5611 5.14006 45.8641 4.72718 46.2429 4.43173C46.6255 4.13249 47.0421 3.92415 47.4929 3.80673C47.9474 3.68552 48.3944 3.62491 48.8338 3.62491C49.1141 3.62491 49.4361 3.659 49.7997 3.72718C50.1671 3.79158 50.5213 3.92605 50.8622 4.13059C51.2069 4.33514 51.4929 4.64385 51.7202 5.05673C51.9474 5.46961 52.0611 6.02264 52.0611 6.71582V12.4658H50.7202V11.284H50.652C50.5611 11.4734 50.4096 11.676 50.1974 11.892C49.9853 12.1079 49.7031 12.2916 49.3509 12.4431C48.9986 12.5946 48.5687 12.6704 48.0611 12.6704ZM48.2656 11.4658C48.7959 11.4658 49.2429 11.3617 49.6065 11.1533C49.974 10.945 50.2505 10.676 50.4361 10.3465C50.6255 10.017 50.7202 9.67037 50.7202 9.30673V8.07946C50.6634 8.14764 50.5384 8.21014 50.3452 8.26696C50.1558 8.31999 49.9361 8.36734 49.6861 8.409C49.4399 8.44688 49.1993 8.48097 48.9645 8.51127C48.7334 8.53779 48.5459 8.56052 48.402 8.57946C48.0535 8.62491 47.7277 8.69877 47.4247 8.80105C47.1255 8.89953 46.883 9.04915 46.6974 9.24991C46.5156 9.44688 46.4247 9.71582 46.4247 10.0567C46.4247 10.5226 46.5971 10.8749 46.9418 11.1135C47.2902 11.3484 47.7315 11.4658 48.2656 11.4658ZM60.6903 5.69309L59.4858 6.034C59.41 5.83324 59.2983 5.63817 59.1506 5.44877C59.0066 5.25559 58.8097 5.0965 58.5597 4.9715C58.3097 4.8465 57.9896 4.784 57.5994 4.784C57.0653 4.784 56.6203 4.90711 56.2642 5.15332C55.9119 5.39574 55.7358 5.70446 55.7358 6.07946C55.7358 6.41279 55.857 6.67605 56.0994 6.86923C56.3419 7.06241 56.7206 7.2234 57.2358 7.35218L58.5312 7.67037C59.3116 7.85976 59.893 8.14953 60.2756 8.53968C60.6581 8.92605 60.8494 9.42415 60.8494 10.034C60.8494 10.534 60.7055 10.981 60.4176 11.3749C60.1335 11.7689 59.7358 12.0795 59.2244 12.3067C58.7131 12.534 58.1184 12.6476 57.4403 12.6476C56.5502 12.6476 55.8134 12.4545 55.2301 12.0681C54.6468 11.6817 54.2775 11.1173 54.1222 10.3749L55.3949 10.0567C55.5161 10.5264 55.7453 10.8787 56.0824 11.1135C56.4233 11.3484 56.8684 11.4658 57.4176 11.4658C58.0426 11.4658 58.5388 11.3332 58.9062 11.0681C59.2775 10.7992 59.4631 10.4772 59.4631 10.1022C59.4631 9.79915 59.357 9.54537 59.1449 9.34082C58.9328 9.13249 58.607 8.97718 58.1676 8.87491L56.7131 8.534C55.9138 8.34461 55.3267 8.05105 54.9517 7.65332C54.5805 7.2518 54.3949 6.74991 54.3949 6.14764C54.3949 5.65521 54.5331 5.21961 54.8097 4.84082C55.09 4.46203 55.4706 4.16468 55.9517 3.94877C56.4366 3.73287 56.9858 3.62491 57.5994 3.62491C58.4631 3.62491 59.1411 3.8143 59.6335 4.19309C60.1297 4.57188 60.482 5.07188 60.6903 5.69309ZM64.1179 9.284L64.0952 7.62491H64.3679L68.1861 3.73855H69.8452L65.777 7.85218H65.6634L64.1179 9.284ZM62.8679 12.4658V0.829456H64.2088V12.4658H62.8679ZM68.4134 12.4658L65.0043 8.14764L65.9588 7.21582L70.1179 12.4658H68.4134Z" fill="#CDCDCD"/>
</svg>
