<svg width="43" height="13" viewBox="0 0 43 13" fill="none" xmlns="http://www.w3.org/2000/svg">
<path d="M0.409091 12.4658V0.829456H4.47727C5.28788 0.829456 5.95644 0.969608 6.48295 1.24991C7.00947 1.52643 7.40152 1.89953 7.65909 2.36923C7.91667 2.83514 8.04545 3.35218 8.04545 3.92037C8.04545 4.42037 7.95644 4.83324 7.77841 5.159C7.60417 5.48476 7.37311 5.74234 7.08523 5.93173C6.80114 6.12112 6.49242 6.26127 6.15909 6.35218V6.46582C6.51515 6.48855 6.87311 6.61355 7.23295 6.84082C7.5928 7.06809 7.89394 7.39385 8.13636 7.81809C8.37879 8.24234 8.5 8.76127 8.5 9.37491C8.5 9.95824 8.36742 10.4829 8.10227 10.9488C7.83712 11.4147 7.41856 11.784 6.84659 12.0567C6.27462 12.3295 5.5303 12.4658 4.61364 12.4658H0.409091ZM1.81818 11.2158H4.61364C5.53409 11.2158 6.1875 11.0378 6.57386 10.6817C6.96402 10.3219 7.15909 9.88627 7.15909 9.37491C7.15909 8.98097 7.05871 8.61734 6.85795 8.284C6.6572 7.94688 6.37121 7.67794 6 7.47718C5.62879 7.27264 5.18939 7.17037 4.68182 7.17037H1.81818V11.2158ZM1.81818 5.94309H4.43182C4.85606 5.94309 5.23864 5.85976 5.57955 5.69309C5.92424 5.52643 6.19697 5.29158 6.39773 4.98855C6.60227 4.68552 6.70455 4.32946 6.70455 3.92037C6.70455 3.409 6.52652 2.97529 6.17045 2.61923C5.81439 2.25938 5.25 2.07946 4.47727 2.07946H1.81818V5.94309ZM14.179 12.6476C13.3911 12.6476 12.6998 12.4601 12.1051 12.0851C11.5142 11.7101 11.0521 11.1855 10.7188 10.5113C10.3892 9.83703 10.2244 9.04915 10.2244 8.14764C10.2244 7.23855 10.3892 6.44499 10.7188 5.76696C11.0521 5.08893 11.5142 4.56241 12.1051 4.18741C12.6998 3.81241 13.3911 3.62491 14.179 3.62491C14.9669 3.62491 15.6563 3.81241 16.2472 4.18741C16.8419 4.56241 17.304 5.08893 17.6335 5.76696C17.9669 6.44499 18.1335 7.23855 18.1335 8.14764C18.1335 9.04915 17.9669 9.83703 17.6335 10.5113C17.304 11.1855 16.8419 11.7101 16.2472 12.0851C15.6563 12.4601 14.9669 12.6476 14.179 12.6476ZM14.179 11.4431C14.7775 11.4431 15.2699 11.2897 15.6562 10.9829C16.0426 10.676 16.3286 10.2726 16.5142 9.77264C16.6998 9.27264 16.7926 8.73097 16.7926 8.14764C16.7926 7.5643 16.6998 7.02074 16.5142 6.51696C16.3286 6.01317 16.0426 5.60597 15.6562 5.29537C15.2699 4.98476 14.7775 4.82946 14.179 4.82946C13.5805 4.82946 13.0881 4.98476 12.7017 5.29537C12.3153 5.60597 12.0294 6.01317 11.8438 6.51696C11.6581 7.02074 11.5653 7.5643 11.5653 8.14764C11.5653 8.73097 11.6581 9.27264 11.8438 9.77264C12.0294 10.2726 12.3153 10.676 12.7017 10.9829C13.0881 11.2897 13.5805 11.4431 14.179 11.4431ZM22.7486 12.6704C22.1955 12.6704 21.6937 12.5662 21.2429 12.3579C20.7921 12.1457 20.4342 11.8408 20.169 11.4431C19.9039 11.0416 19.7713 10.5567 19.7713 9.98855C19.7713 9.48855 19.8698 9.08324 20.0668 8.77264C20.2637 8.45824 20.527 8.21203 20.8565 8.034C21.1861 7.85597 21.5497 7.7234 21.9474 7.63627C22.349 7.54537 22.7524 7.4734 23.1577 7.42037C23.688 7.35218 24.1179 7.30105 24.4474 7.26696C24.7808 7.22908 25.0232 7.16658 25.1747 7.07946C25.33 6.99234 25.4077 6.84082 25.4077 6.62491V6.57946C25.4077 6.01885 25.2543 5.58324 24.9474 5.27264C24.6444 4.96203 24.1842 4.80673 23.5668 4.80673C22.9266 4.80673 22.4247 4.94688 22.0611 5.22718C21.6974 5.50749 21.4418 5.80673 21.294 6.12491L20.0213 5.67037C20.2486 5.14006 20.5516 4.72718 20.9304 4.43173C21.313 4.13249 21.7296 3.92415 22.1804 3.80673C22.6349 3.68552 23.0819 3.62491 23.5213 3.62491C23.8016 3.62491 24.1236 3.659 24.4872 3.72718C24.8546 3.79158 25.2088 3.92605 25.5497 4.13059C25.8944 4.33514 26.1804 4.64385 26.4077 5.05673C26.6349 5.46961 26.7486 6.02264 26.7486 6.71582V12.4658H25.4077V11.284H25.3395C25.2486 11.4734 25.0971 11.676 24.8849 11.892C24.6728 12.1079 24.3906 12.2916 24.0384 12.4431C23.6861 12.5946 23.2562 12.6704 22.7486 12.6704ZM22.9531 11.4658C23.4834 11.4658 23.9304 11.3617 24.294 11.1533C24.6615 10.945 24.938 10.676 25.1236 10.3465C25.313 10.017 25.4077 9.67037 25.4077 9.30673V8.07946C25.3509 8.14764 25.2259 8.21014 25.0327 8.26696C24.8433 8.31999 24.6236 8.36734 24.3736 8.409C24.1274 8.44688 23.8868 8.48097 23.652 8.51127C23.4209 8.53779 23.2334 8.56052 23.0895 8.57946C22.741 8.62491 22.4152 8.69877 22.1122 8.80105C21.813 8.89953 21.5705 9.04915 21.3849 9.24991C21.2031 9.44688 21.1122 9.71582 21.1122 10.0567C21.1122 10.5226 21.2846 10.8749 21.6293 11.1135C21.9777 11.3484 22.419 11.4658 22.9531 11.4658ZM29.196 12.4658V3.73855H30.4915V5.05673H30.5824C30.7415 4.62491 31.0294 4.27453 31.446 4.00559C31.8627 3.73665 32.3324 3.60218 32.8551 3.60218C32.9536 3.60218 33.0767 3.60408 33.2244 3.60787C33.3722 3.61165 33.4839 3.61734 33.5597 3.62491V4.98855C33.5142 4.97718 33.41 4.96014 33.2472 4.93741C33.0881 4.9109 32.9195 4.89764 32.7415 4.89764C32.3172 4.89764 31.9384 4.98665 31.6051 5.16468C31.2756 5.33893 31.0142 5.58135 30.821 5.89196C30.6316 6.19877 30.5369 6.54915 30.5369 6.94309V12.4658H29.196ZM38.179 12.6476C37.4517 12.6476 36.8097 12.4639 36.2528 12.0965C35.696 11.7253 35.2604 11.2026 34.946 10.5283C34.6316 9.85029 34.4744 9.04915 34.4744 8.12491C34.4744 7.20824 34.6316 6.41279 34.946 5.73855C35.2604 5.0643 35.6979 4.54347 36.2585 4.17605C36.8191 3.80862 37.4669 3.62491 38.2017 3.62491C38.7699 3.62491 39.2188 3.71961 39.5483 3.909C39.8816 4.09461 40.1354 4.30673 40.3097 4.54537C40.4877 4.78021 40.6259 4.9734 40.7244 5.12491H40.8381V0.829456H42.179V12.4658H40.8835V11.1249H40.7244C40.6259 11.284 40.4858 11.4848 40.304 11.7272C40.1222 11.9658 39.8627 12.1798 39.5256 12.3692C39.1884 12.5548 38.7396 12.6476 38.179 12.6476ZM38.3608 11.4431C38.8987 11.4431 39.3532 11.3029 39.7244 11.0226C40.0956 10.7385 40.3778 10.3465 40.571 9.8465C40.7642 9.34271 40.8608 8.76127 40.8608 8.10218C40.8608 7.45067 40.7661 6.88059 40.5767 6.39196C40.3873 5.89953 40.107 5.51696 39.7358 5.24423C39.3646 4.96771 38.9063 4.82946 38.3608 4.82946C37.7926 4.82946 37.3191 4.97529 36.9403 5.26696C36.5653 5.55484 36.2831 5.94688 36.0938 6.44309C35.9081 6.93552 35.8153 7.48855 35.8153 8.10218C35.8153 8.7234 35.91 9.28779 36.0994 9.79537C36.2926 10.2992 36.5767 10.7007 36.9517 10.9999C37.3305 11.2954 37.8002 11.4431 38.3608 11.4431Z" fill="#CDCDCD"/>
</svg>
