<svg width="68" height="13" viewBox="0 0 68 13" fill="none" xmlns="http://www.w3.org/2000/svg">
<path d="M10.7727 4.46582H9.36364C9.2803 4.06052 9.13447 3.70446 8.92614 3.39764C8.72159 3.09082 8.47159 2.83324 8.17614 2.62491C7.88447 2.41279 7.56061 2.2537 7.20455 2.14764C6.84849 2.04158 6.47727 1.98855 6.09091 1.98855C5.38636 1.98855 4.74811 2.16658 4.17614 2.52264C3.60795 2.8787 3.1553 3.40332 2.81818 4.0965C2.48485 4.78968 2.31818 5.64006 2.31818 6.64764C2.31818 7.65521 2.48485 8.50559 2.81818 9.19877C3.1553 9.89196 3.60795 10.4166 4.17614 10.7726C4.74811 11.1287 5.38636 11.3067 6.09091 11.3067C6.47727 11.3067 6.84849 11.2537 7.20455 11.1476C7.56061 11.0416 7.88447 10.8844 8.17614 10.676C8.47159 10.4639 8.72159 10.2045 8.92614 9.89764C9.13447 9.58703 9.2803 9.23097 9.36364 8.82946H10.7727C10.6667 9.42415 10.4735 9.95635 10.1932 10.426C9.91288 10.8957 9.56439 11.2954 9.14773 11.6249C8.73106 11.9507 8.26326 12.1988 7.74432 12.3692C7.22917 12.5397 6.67803 12.6249 6.09091 12.6249C5.09849 12.6249 4.21591 12.3825 3.44318 11.8976C2.67045 11.4128 2.0625 10.7234 1.61932 9.82946C1.17614 8.93552 0.954545 7.87491 0.954545 6.64764C0.954545 5.42037 1.17614 4.35976 1.61932 3.46582C2.0625 2.57188 2.67045 1.88249 3.44318 1.39764C4.21591 0.91279 5.09849 0.670365 6.09091 0.670365C6.67803 0.670365 7.22917 0.755593 7.74432 0.926047C8.26326 1.0965 8.73106 1.3465 9.14773 1.67605C9.56439 2.0018 9.91288 2.39953 10.1932 2.86923C10.4735 3.33514 10.6667 3.86734 10.7727 4.46582ZM16.4134 12.6476C15.6255 12.6476 14.9342 12.4601 14.3395 12.0851C13.7486 11.7101 13.2865 11.1855 12.9531 10.5113C12.6236 9.83703 12.4588 9.04915 12.4588 8.14764C12.4588 7.23855 12.6236 6.44499 12.9531 5.76696C13.2865 5.08893 13.7486 4.56241 14.3395 4.18741C14.9342 3.81241 15.6255 3.62491 16.4134 3.62491C17.2012 3.62491 17.8906 3.81241 18.4815 4.18741C19.0762 4.56241 19.5384 5.08893 19.8679 5.76696C20.2012 6.44499 20.3679 7.23855 20.3679 8.14764C20.3679 9.04915 20.2012 9.83703 19.8679 10.5113C19.5384 11.1855 19.0762 11.7101 18.4815 12.0851C17.8906 12.4601 17.2012 12.6476 16.4134 12.6476ZM16.4134 11.4431C17.0118 11.4431 17.5043 11.2897 17.8906 10.9829C18.277 10.676 18.563 10.2726 18.7486 9.77264C18.9342 9.27264 19.027 8.73097 19.027 8.14764C19.027 7.5643 18.9342 7.02074 18.7486 6.51696C18.563 6.01317 18.277 5.60597 17.8906 5.29537C17.5043 4.98476 17.0118 4.82946 16.4134 4.82946C15.8149 4.82946 15.3224 4.98476 14.9361 5.29537C14.5497 5.60597 14.2637 6.01317 14.0781 6.51696C13.8925 7.02074 13.7997 7.5643 13.7997 8.14764C13.7997 8.73097 13.8925 9.27264 14.0781 9.77264C14.2637 10.2726 14.5497 10.676 14.9361 10.9829C15.3224 11.2897 15.8149 11.4431 16.4134 11.4431ZM23.7557 7.21582V12.4658H22.4148V3.73855H23.7102V5.10218H23.8239C24.0284 4.659 24.339 4.30294 24.7557 4.034C25.1723 3.76127 25.7102 3.62491 26.3693 3.62491C26.9602 3.62491 27.4773 3.74612 27.9205 3.98855C28.3636 4.22718 28.7083 4.59082 28.9545 5.07946C29.2008 5.5643 29.3239 6.17794 29.3239 6.92037V12.4658H27.983V7.01127C27.983 6.32567 27.8049 5.79158 27.4489 5.409C27.0928 5.02264 26.6042 4.82946 25.983 4.82946C25.5549 4.82946 25.1723 4.92226 24.8352 5.10787C24.5019 5.29347 24.2386 5.5643 24.0455 5.92037C23.8523 6.27643 23.7557 6.70824 23.7557 7.21582ZM35.5696 3.73855V4.87491H31.0469V3.73855H35.5696ZM32.3651 1.64764H33.706V9.96582C33.706 10.3446 33.7609 10.6287 33.8707 10.8181C33.9844 11.0037 34.1283 11.1287 34.3026 11.1931C34.4806 11.2537 34.6681 11.284 34.8651 11.284C35.0128 11.284 35.134 11.2764 35.2287 11.2613C35.3234 11.2423 35.3991 11.2272 35.456 11.2158L35.7287 12.4204C35.6378 12.4545 35.5109 12.4885 35.348 12.5226C35.1851 12.5605 34.9787 12.5795 34.7287 12.5795C34.3499 12.5795 33.9787 12.498 33.6151 12.3351C33.2552 12.1723 32.956 11.9242 32.7173 11.5908C32.4825 11.2575 32.3651 10.837 32.3651 10.3295V1.64764ZM40.1548 12.6704C39.6018 12.6704 39.0999 12.5662 38.6491 12.3579C38.1984 12.1457 37.8404 11.8408 37.5753 11.4431C37.3101 11.0416 37.1776 10.5567 37.1776 9.98855C37.1776 9.48855 37.276 9.08324 37.473 8.77264C37.67 8.45824 37.9332 8.21203 38.2628 8.034C38.5923 7.85597 38.956 7.7234 39.3537 7.63627C39.7552 7.54537 40.1586 7.4734 40.5639 7.42037C41.0942 7.35218 41.5241 7.30105 41.8537 7.26696C42.187 7.22908 42.4295 7.16658 42.581 7.07946C42.7363 6.99234 42.8139 6.84082 42.8139 6.62491V6.57946C42.8139 6.01885 42.6605 5.58324 42.3537 5.27264C42.0507 4.96203 41.5904 4.80673 40.973 4.80673C40.3329 4.80673 39.831 4.94688 39.4673 5.22718C39.1037 5.50749 38.848 5.80673 38.7003 6.12491L37.4276 5.67037C37.6548 5.14006 37.9579 4.72718 38.3366 4.43173C38.7192 4.13249 39.1359 3.92415 39.5866 3.80673C40.0412 3.68552 40.4882 3.62491 40.9276 3.62491C41.2079 3.62491 41.5298 3.659 41.8935 3.72718C42.2609 3.79158 42.6151 3.92605 42.956 4.13059C43.3007 4.33514 43.5866 4.64385 43.8139 5.05673C44.0412 5.46961 44.1548 6.02264 44.1548 6.71582V12.4658H42.8139V11.284H42.7457C42.6548 11.4734 42.5033 11.676 42.2912 11.892C42.0791 12.1079 41.7969 12.2916 41.4446 12.4431C41.0923 12.5946 40.6624 12.6704 40.1548 12.6704ZM40.3594 11.4658C40.8897 11.4658 41.3366 11.3617 41.7003 11.1533C42.0677 10.945 42.3442 10.676 42.5298 10.3465C42.7192 10.017 42.8139 9.67037 42.8139 9.30673V8.07946C42.7571 8.14764 42.6321 8.21014 42.4389 8.26696C42.2495 8.31999 42.0298 8.36734 41.7798 8.409C41.5336 8.44688 41.2931 8.48097 41.0582 8.51127C40.8272 8.53779 40.6397 8.56052 40.4957 8.57946C40.1473 8.62491 39.8215 8.69877 39.5185 8.80105C39.2192 8.89953 38.9768 9.04915 38.7912 9.24991C38.6094 9.44688 38.5185 9.71582 38.5185 10.0567C38.5185 10.5226 38.6908 10.8749 39.0355 11.1135C39.384 11.3484 39.8253 11.4658 40.3594 11.4658ZM50.1477 12.6476C49.3295 12.6476 48.625 12.4545 48.0341 12.0681C47.4432 11.6817 46.9886 11.1495 46.6705 10.4715C46.3523 9.79347 46.1932 9.01885 46.1932 8.14764C46.1932 7.26127 46.3561 6.47908 46.6818 5.80105C47.0114 5.11923 47.4697 4.58703 48.0568 4.20446C48.6477 3.81809 49.3371 3.62491 50.125 3.62491C50.7386 3.62491 51.2917 3.73855 51.7841 3.96582C52.2765 4.19309 52.6799 4.51127 52.9943 4.92037C53.3087 5.32946 53.5038 5.80673 53.5795 6.35218H52.2386C52.1364 5.95446 51.9091 5.60218 51.5568 5.29537C51.2083 4.98476 50.7386 4.82946 50.1477 4.82946C49.625 4.82946 49.1667 4.96582 48.7727 5.23855C48.3826 5.50749 48.0777 5.88817 47.858 6.38059C47.642 6.86923 47.5341 7.44309 47.5341 8.10218C47.5341 8.77643 47.6402 9.36355 47.8523 9.86355C48.0682 10.3635 48.3712 10.7518 48.7614 11.0283C49.1553 11.3048 49.6174 11.4431 50.1477 11.4431C50.4962 11.4431 50.8125 11.3825 51.0966 11.2613C51.3807 11.1401 51.6212 10.9658 51.8182 10.7385C52.0152 10.5113 52.1553 10.2385 52.2386 9.92037H53.5795C53.5038 10.4355 53.3163 10.8995 53.017 11.3124C52.7216 11.7215 52.3295 12.0473 51.8409 12.2897C51.3561 12.5283 50.7917 12.6476 50.1477 12.6476ZM59.3352 3.73855V4.87491H54.8125V3.73855H59.3352ZM56.1307 1.64764H57.4716V9.96582C57.4716 10.3446 57.5265 10.6287 57.6364 10.8181C57.75 11.0037 57.8939 11.1287 58.0682 11.1931C58.2462 11.2537 58.4337 11.284 58.6307 11.284C58.7784 11.284 58.8996 11.2764 58.9943 11.2613C59.089 11.2423 59.1648 11.2272 59.2216 11.2158L59.4943 12.4204C59.4034 12.4545 59.2765 12.4885 59.1136 12.5226C58.9508 12.5605 58.7443 12.5795 58.4943 12.5795C58.1155 12.5795 57.7443 12.498 57.3807 12.3351C57.0208 12.1723 56.7216 11.9242 56.483 11.5908C56.2481 11.2575 56.1307 10.837 56.1307 10.3295V1.64764ZM67.3778 5.69309L66.1733 6.034C66.0975 5.83324 65.9858 5.63817 65.8381 5.44877C65.6941 5.25559 65.4972 5.0965 65.2472 4.9715C64.9972 4.8465 64.6771 4.784 64.2869 4.784C63.7528 4.784 63.3078 4.90711 62.9517 5.15332C62.5994 5.39574 62.4233 5.70446 62.4233 6.07946C62.4233 6.41279 62.5445 6.67605 62.7869 6.86923C63.0294 7.06241 63.4081 7.2234 63.9233 7.35218L65.2188 7.67037C65.9991 7.85976 66.5805 8.14953 66.9631 8.53968C67.3456 8.92605 67.5369 9.42415 67.5369 10.034C67.5369 10.534 67.393 10.981 67.1051 11.3749C66.821 11.7689 66.4233 12.0795 65.9119 12.3067C65.4006 12.534 64.8059 12.6476 64.1278 12.6476C63.2377 12.6476 62.5009 12.4545 61.9176 12.0681C61.3343 11.6817 60.965 11.1173 60.8097 10.3749L62.0824 10.0567C62.2036 10.5264 62.4328 10.8787 62.7699 11.1135C63.1108 11.3484 63.5559 11.4658 64.1051 11.4658C64.7301 11.4658 65.2263 11.3332 65.5938 11.0681C65.965 10.7992 66.1506 10.4772 66.1506 10.1022C66.1506 9.79915 66.0445 9.54537 65.8324 9.34082C65.6203 9.13249 65.2945 8.97718 64.8551 8.87491L63.4006 8.534C62.6013 8.34461 62.0142 8.05105 61.6392 7.65332C61.268 7.2518 61.0824 6.74991 61.0824 6.14764C61.0824 5.65521 61.2206 5.21961 61.4972 4.84082C61.7775 4.46203 62.1581 4.16468 62.6392 3.94877C63.1241 3.73287 63.6733 3.62491 64.2869 3.62491C65.1506 3.62491 65.8286 3.8143 66.321 4.19309C66.8172 4.57188 67.1695 5.07188 67.3778 5.69309Z" fill="#CDCDCD"/>
</svg>
