<svg width="130" height="46" viewBox="0 0 130 46" fill="none" xmlns="http://www.w3.org/2000/svg">
<path d="M17.4091 28.5V16.8636H21.3409C22.2538 16.8636 23 17.0284 23.5795 17.358C24.1629 17.6837 24.5947 18.125 24.875 18.6818C25.1553 19.2386 25.2955 19.8598 25.2955 20.5455C25.2955 21.2311 25.1553 21.8542 24.875 22.4148C24.5985 22.9754 24.1705 23.4223 23.5909 23.7557C23.0114 24.0852 22.2689 24.25 21.3636 24.25H18.5455V23H21.3182C21.9432 23 22.4451 22.892 22.8239 22.6761C23.2027 22.4602 23.4773 22.1686 23.6477 21.8011C23.822 21.4299 23.9091 21.0114 23.9091 20.5455C23.9091 20.0795 23.822 19.6629 23.6477 19.2955C23.4773 18.928 23.2008 18.6402 22.8182 18.4318C22.4356 18.2197 21.928 18.1136 21.2955 18.1136H18.8182V28.5H17.4091ZM27.3835 28.5V19.7727H28.679V21.0909H28.7699C28.929 20.6591 29.2169 20.3087 29.6335 20.0398C30.0502 19.7708 30.5199 19.6364 31.0426 19.6364C31.1411 19.6364 31.2642 19.6383 31.4119 19.642C31.5597 19.6458 31.6714 19.6515 31.7472 19.6591V21.0227C31.7017 21.0114 31.5975 20.9943 31.4347 20.9716C31.2756 20.9451 31.107 20.9318 30.929 20.9318C30.5047 20.9318 30.1259 21.0208 29.7926 21.1989C29.4631 21.3731 29.2017 21.6155 29.0085 21.9261C28.8191 22.233 28.7244 22.5833 28.7244 22.9773V28.5H27.3835ZM33.3366 28.5V19.7727H34.6776V28.5H33.3366ZM34.0185 18.3182C33.7571 18.3182 33.5317 18.2292 33.3423 18.0511C33.1567 17.8731 33.0639 17.6591 33.0639 17.4091C33.0639 17.1591 33.1567 16.9451 33.3423 16.767C33.5317 16.589 33.7571 16.5 34.0185 16.5C34.2798 16.5 34.5033 16.589 34.6889 16.767C34.8783 16.9451 34.973 17.1591 34.973 17.4091C34.973 17.6591 34.8783 17.8731 34.6889 18.0511C34.5033 18.2292 34.2798 18.3182 34.0185 18.3182ZM44.2699 19.7727L41.0426 28.5H39.679L36.4517 19.7727H37.9062L40.3153 26.7273H40.4062L42.8153 19.7727H44.2699ZM48.3423 28.7045C47.7893 28.7045 47.2874 28.6004 46.8366 28.392C46.3859 28.1799 46.0279 27.875 45.7628 27.4773C45.4976 27.0758 45.3651 26.5909 45.3651 26.0227C45.3651 25.5227 45.4635 25.1174 45.6605 24.8068C45.8575 24.4924 46.1207 24.2462 46.4503 24.0682C46.7798 23.8902 47.1435 23.7576 47.5412 23.6705C47.9427 23.5795 48.3461 23.5076 48.7514 23.4545C49.2817 23.3864 49.7116 23.3352 50.0412 23.3011C50.3745 23.2633 50.617 23.2008 50.7685 23.1136C50.9238 23.0265 51.0014 22.875 51.0014 22.6591V22.6136C51.0014 22.053 50.848 21.6174 50.5412 21.3068C50.2382 20.9962 49.7779 20.8409 49.1605 20.8409C48.5204 20.8409 48.0185 20.9811 47.6548 21.2614C47.2912 21.5417 47.0355 21.8409 46.8878 22.1591L45.6151 21.7045C45.8423 21.1742 46.1454 20.7614 46.5241 20.4659C46.9067 20.1667 47.3234 19.9583 47.7741 19.8409C48.2287 19.7197 48.6757 19.6591 49.1151 19.6591C49.3954 19.6591 49.7173 19.6932 50.081 19.7614C50.4484 19.8258 50.8026 19.9602 51.1435 20.1648C51.4882 20.3693 51.7741 20.678 52.0014 21.0909C52.2287 21.5038 52.3423 22.0568 52.3423 22.75V28.5H51.0014V27.3182H50.9332C50.8423 27.5076 50.6908 27.7102 50.4787 27.9261C50.2666 28.142 49.9844 28.3258 49.6321 28.4773C49.2798 28.6288 48.8499 28.7045 48.3423 28.7045ZM48.5469 27.5C49.0772 27.5 49.5241 27.3958 49.8878 27.1875C50.2552 26.9792 50.5317 26.7102 50.7173 26.3807C50.9067 26.0511 51.0014 25.7045 51.0014 25.3409V24.1136C50.9446 24.1818 50.8196 24.2443 50.6264 24.3011C50.437 24.3542 50.2173 24.4015 49.9673 24.4432C49.7211 24.4811 49.4806 24.5152 49.2457 24.5455C49.0147 24.572 48.8272 24.5947 48.6832 24.6136C48.3348 24.6591 48.009 24.733 47.706 24.8352C47.4067 24.9337 47.1643 25.0833 46.9787 25.2841C46.7969 25.4811 46.706 25.75 46.706 26.0909C46.706 26.5568 46.8783 26.9091 47.223 27.1477C47.5715 27.3826 48.0128 27.5 48.5469 27.5ZM58.3352 28.6818C57.517 28.6818 56.8125 28.4886 56.2216 28.1023C55.6307 27.7159 55.1761 27.1837 54.858 26.5057C54.5398 25.8277 54.3807 25.053 54.3807 24.1818C54.3807 23.2955 54.5436 22.5133 54.8693 21.8352C55.1989 21.1534 55.6572 20.6212 56.2443 20.2386C56.8352 19.8523 57.5246 19.6591 58.3125 19.6591C58.9261 19.6591 59.4792 19.7727 59.9716 20C60.464 20.2273 60.8674 20.5455 61.1818 20.9545C61.4962 21.3636 61.6913 21.8409 61.767 22.3864H60.4261C60.3239 21.9886 60.0966 21.6364 59.7443 21.3295C59.3958 21.0189 58.9261 20.8636 58.3352 20.8636C57.8125 20.8636 57.3542 21 56.9602 21.2727C56.5701 21.5417 56.2652 21.9223 56.0455 22.4148C55.8295 22.9034 55.7216 23.4773 55.7216 24.1364C55.7216 24.8106 55.8277 25.3977 56.0398 25.8977C56.2557 26.3977 56.5587 26.786 56.9489 27.0625C57.3428 27.339 57.8049 27.4773 58.3352 27.4773C58.6837 27.4773 59 27.4167 59.2841 27.2955C59.5682 27.1742 59.8087 27 60.0057 26.7727C60.2027 26.5455 60.3428 26.2727 60.4261 25.9545H61.767C61.6913 26.4697 61.5038 26.9337 61.2045 27.3466C60.9091 27.7557 60.517 28.0814 60.0284 28.3239C59.5436 28.5625 58.9792 28.6818 58.3352 28.6818ZM64.5909 31.7727C64.3636 31.7727 64.161 31.7538 63.983 31.7159C63.8049 31.6818 63.6818 31.6477 63.6136 31.6136L63.9545 30.4318C64.2803 30.5152 64.5682 30.5455 64.8182 30.5227C65.0682 30.5 65.2898 30.3883 65.483 30.1875C65.6799 29.9905 65.8598 29.6705 66.0227 29.2273L66.2727 28.5455L63.0455 19.7727H64.5L66.9091 26.7273H67L69.4091 19.7727H70.8636L67.1591 29.7727C66.9924 30.2235 66.786 30.5966 66.5398 30.892C66.2936 31.1913 66.0076 31.4129 65.6818 31.5568C65.3598 31.7008 64.9962 31.7727 64.5909 31.7727ZM77.3153 28.5V16.8636H81.2472C82.16 16.8636 82.9063 17.0284 83.4858 17.358C84.0691 17.6837 84.5009 18.125 84.7812 18.6818C85.0616 19.2386 85.2017 19.8598 85.2017 20.5455C85.2017 21.2311 85.0616 21.8542 84.7812 22.4148C84.5047 22.9754 84.0767 23.4223 83.4972 23.7557C82.9176 24.0852 82.1752 24.25 81.2699 24.25H78.4517V23H81.2244C81.8494 23 82.3513 22.892 82.7301 22.6761C83.1089 22.4602 83.3835 22.1686 83.554 21.8011C83.7282 21.4299 83.8153 21.0114 83.8153 20.5455C83.8153 20.0795 83.7282 19.6629 83.554 19.2955C83.3835 18.928 83.107 18.6402 82.7244 18.4318C82.3419 18.2197 81.8343 18.1136 81.2017 18.1136H78.7244V28.5H77.3153ZM90.7415 28.6818C89.9536 28.6818 89.2623 28.4943 88.6676 28.1193C88.0767 27.7443 87.6146 27.2197 87.2812 26.5455C86.9517 25.8712 86.7869 25.0833 86.7869 24.1818C86.7869 23.2727 86.9517 22.4792 87.2812 21.8011C87.6146 21.1231 88.0767 20.5966 88.6676 20.2216C89.2623 19.8466 89.9536 19.6591 90.7415 19.6591C91.5294 19.6591 92.2188 19.8466 92.8097 20.2216C93.4044 20.5966 93.8665 21.1231 94.196 21.8011C94.5294 22.4792 94.696 23.2727 94.696 24.1818C94.696 25.0833 94.5294 25.8712 94.196 26.5455C93.8665 27.2197 93.4044 27.7443 92.8097 28.1193C92.2188 28.4943 91.5294 28.6818 90.7415 28.6818ZM90.7415 27.4773C91.34 27.4773 91.8324 27.3239 92.2188 27.017C92.6051 26.7102 92.8911 26.3068 93.0767 25.8068C93.2623 25.3068 93.3551 24.7652 93.3551 24.1818C93.3551 23.5985 93.2623 23.0549 93.0767 22.5511C92.8911 22.0473 92.6051 21.6402 92.2188 21.3295C91.8324 21.0189 91.34 20.8636 90.7415 20.8636C90.143 20.8636 89.6506 21.0189 89.2642 21.3295C88.8778 21.6402 88.5919 22.0473 88.4062 22.5511C88.2206 23.0549 88.1278 23.5985 88.1278 24.1818C88.1278 24.7652 88.2206 25.3068 88.4062 25.8068C88.5919 26.3068 88.8778 26.7102 89.2642 27.017C89.6506 27.3239 90.143 27.4773 90.7415 27.4773ZM98.0838 16.8636V28.5H96.7429V16.8636H98.0838ZM100.54 28.5V19.7727H101.881V28.5H100.54ZM101.222 18.3182C100.96 18.3182 100.735 18.2292 100.545 18.0511C100.36 17.8731 100.267 17.6591 100.267 17.4091C100.267 17.1591 100.36 16.9451 100.545 16.767C100.735 16.589 100.96 16.5 101.222 16.5C101.483 16.5 101.706 16.589 101.892 16.767C102.081 16.9451 102.176 17.1591 102.176 17.4091C102.176 17.6591 102.081 17.8731 101.892 18.0511C101.706 18.2292 101.483 18.3182 101.222 18.3182ZM107.882 28.6818C107.064 28.6818 106.359 28.4886 105.768 28.1023C105.178 27.7159 104.723 27.1837 104.405 26.5057C104.087 25.8277 103.928 25.053 103.928 24.1818C103.928 23.2955 104.09 22.5133 104.416 21.8352C104.746 21.1534 105.204 20.6212 105.791 20.2386C106.382 19.8523 107.071 19.6591 107.859 19.6591C108.473 19.6591 109.026 19.7727 109.518 20C110.011 20.2273 110.414 20.5455 110.729 20.9545C111.043 21.3636 111.238 21.8409 111.314 22.3864H109.973C109.871 21.9886 109.643 21.6364 109.291 21.3295C108.943 21.0189 108.473 20.8636 107.882 20.8636C107.359 20.8636 106.901 21 106.507 21.2727C106.117 21.5417 105.812 21.9223 105.592 22.4148C105.376 22.9034 105.268 23.4773 105.268 24.1364C105.268 24.8106 105.375 25.3977 105.587 25.8977C105.803 26.3977 106.106 26.786 106.496 27.0625C106.89 27.339 107.352 27.4773 107.882 27.4773C108.231 27.4773 108.547 27.4167 108.831 27.2955C109.115 27.1742 109.356 27 109.553 26.7727C109.75 26.5455 109.89 26.2727 109.973 25.9545H111.314C111.238 26.4697 111.051 26.9337 110.751 27.3466C110.456 27.7557 110.064 28.0814 109.575 28.3239C109.09 28.5625 108.526 28.6818 107.882 28.6818ZM114.138 31.7727C113.911 31.7727 113.708 31.7538 113.53 31.7159C113.352 31.6818 113.229 31.6477 113.161 31.6136L113.501 30.4318C113.827 30.5152 114.115 30.5455 114.365 30.5227C114.615 30.5 114.837 30.3883 115.03 30.1875C115.227 29.9905 115.407 29.6705 115.57 29.2273L115.82 28.5455L112.592 19.7727H114.047L116.456 26.7273H116.547L118.956 19.7727H120.411L116.706 29.7727C116.539 30.2235 116.333 30.5966 116.087 30.892C115.84 31.1913 115.554 31.4129 115.229 31.5568C114.907 31.7008 114.543 31.7727 114.138 31.7727Z" fill="#CDCDCD"/>
</svg>
