<svg width="71" height="16" viewBox="0 0 71 16" fill="none" xmlns="http://www.w3.org/2000/svg">
<path d="M7.77273 3.73855C7.70455 3.16279 7.42803 2.71582 6.94318 2.39764C6.45833 2.07946 5.86364 1.92037 5.15909 1.92037C4.64394 1.92037 4.19318 2.0037 3.80682 2.17037C3.42424 2.33703 3.125 2.5662 2.90909 2.85787C2.69697 3.14953 2.59091 3.48097 2.59091 3.85218C2.59091 4.16279 2.66477 4.42984 2.8125 4.65332C2.96402 4.87302 3.1572 5.05673 3.39205 5.20446C3.62689 5.3484 3.87311 5.46771 4.13068 5.56241C4.38826 5.65332 4.625 5.72718 4.84091 5.784L6.02273 6.10218C6.32576 6.18173 6.66288 6.29158 7.03409 6.43173C7.40909 6.57188 7.76705 6.76317 8.10795 7.00559C8.45265 7.24423 8.73674 7.55105 8.96023 7.92605C9.18371 8.30105 9.29545 8.76127 9.29545 9.30673C9.29545 9.93552 9.13068 10.5037 8.80114 11.0113C8.47538 11.5189 7.99811 11.9223 7.36932 12.2215C6.74432 12.5207 5.98485 12.6704 5.09091 12.6704C4.25758 12.6704 3.53598 12.5359 2.92614 12.267C2.32008 11.998 1.8428 11.623 1.49432 11.142C1.14962 10.6609 0.954545 10.1022 0.909091 9.46582H2.36364C2.40152 9.90521 2.54924 10.2689 2.80682 10.5567C3.06818 10.8408 3.39773 11.0529 3.79545 11.1931C4.19697 11.3295 4.62879 11.3976 5.09091 11.3976C5.62879 11.3976 6.11174 11.3105 6.53977 11.1363C6.9678 10.9582 7.30682 10.712 7.55682 10.3976C7.80682 10.0795 7.93182 9.70824 7.93182 9.284C7.93182 8.89764 7.82386 8.58324 7.60795 8.34082C7.39205 8.0984 7.10795 7.90143 6.75568 7.74991C6.40341 7.5984 6.02273 7.46582 5.61364 7.35218L4.18182 6.94309C3.27273 6.68173 2.55303 6.30862 2.02273 5.82377C1.49242 5.33893 1.22727 4.70446 1.22727 3.92037C1.22727 3.26885 1.40341 2.70067 1.75568 2.21582C2.11174 1.72718 2.58902 1.3484 3.1875 1.07946C3.78977 0.806729 4.46212 0.670365 5.20455 0.670365C5.95455 0.670365 6.62121 0.804835 7.20455 1.07377C7.78788 1.33893 8.25 1.70256 8.59091 2.16468C8.93561 2.6268 9.11742 3.15143 9.13636 3.73855H7.77273ZM16.9304 8.89764V3.73855H18.2713V12.4658H16.9304V10.9885H16.8395C16.6349 11.4317 16.3168 11.8086 15.8849 12.1192C15.4531 12.426 14.9077 12.5795 14.2486 12.5795C13.7031 12.5795 13.2183 12.4601 12.794 12.2215C12.3698 11.9791 12.0365 11.6154 11.794 11.1306C11.5516 10.642 11.4304 10.0264 11.4304 9.284V3.73855H12.7713V9.19309C12.7713 9.82946 12.9493 10.337 13.3054 10.7158C13.6652 11.0946 14.1236 11.284 14.6804 11.284C15.0137 11.284 15.3527 11.1988 15.6974 11.0283C16.0459 10.8579 16.3376 10.5965 16.5724 10.2442C16.8111 9.89196 16.9304 9.44309 16.9304 8.89764ZM20.7273 12.4658V3.73855H22.0227V5.10218H22.1364C22.3182 4.63627 22.6117 4.27453 23.017 4.01696C23.4223 3.75559 23.9091 3.62491 24.4773 3.62491C25.053 3.62491 25.5322 3.75559 25.9148 4.01696C26.3011 4.27453 26.6023 4.63627 26.8182 5.10218H26.9091C27.1326 4.65143 27.4678 4.29347 27.9148 4.02832C28.3617 3.75938 28.8977 3.62491 29.5227 3.62491C30.303 3.62491 30.9413 3.86923 31.4375 4.35787C31.9337 4.84271 32.1818 5.5984 32.1818 6.62491V12.4658H30.8409V6.62491C30.8409 5.98097 30.6648 5.52074 30.3125 5.24423C29.9602 4.96771 29.5455 4.82946 29.0682 4.82946C28.4545 4.82946 27.9792 5.01506 27.642 5.38627C27.3049 5.7537 27.1364 6.21961 27.1364 6.784V12.4658H25.7727V6.48855C25.7727 5.99234 25.6117 5.59271 25.2898 5.28968C24.9678 4.98287 24.553 4.82946 24.0455 4.82946C23.697 4.82946 23.3712 4.92226 23.0682 5.10787C22.7689 5.29347 22.5265 5.55105 22.3409 5.88059C22.1591 6.20635 22.0682 6.58324 22.0682 7.01127V12.4658H20.7273ZM34.6335 12.4658V3.73855H35.929V5.10218H36.0426C36.2244 4.63627 36.518 4.27453 36.9233 4.01696C37.3286 3.75559 37.8153 3.62491 38.3835 3.62491C38.9593 3.62491 39.4384 3.75559 39.821 4.01696C40.2074 4.27453 40.5085 4.63627 40.7244 5.10218H40.8153C41.0388 4.65143 41.3741 4.29347 41.821 4.02832C42.268 3.75938 42.804 3.62491 43.429 3.62491C44.2093 3.62491 44.8475 3.86923 45.3438 4.35787C45.84 4.84271 46.0881 5.5984 46.0881 6.62491V12.4658H44.7472V6.62491C44.7472 5.98097 44.571 5.52074 44.2188 5.24423C43.8665 4.96771 43.4517 4.82946 42.9744 4.82946C42.3608 4.82946 41.8854 5.01506 41.5483 5.38627C41.2112 5.7537 41.0426 6.21961 41.0426 6.784V12.4658H39.679V6.48855C39.679 5.99234 39.518 5.59271 39.196 5.28968C38.8741 4.98287 38.4593 4.82946 37.9517 4.82946C37.6032 4.82946 37.2775 4.92226 36.9744 5.10787C36.6752 5.29347 36.4328 5.55105 36.2472 5.88059C36.0653 6.20635 35.9744 6.58324 35.9744 7.01127V12.4658H34.6335ZM51.108 12.6704C50.5549 12.6704 50.053 12.5662 49.6023 12.3579C49.1515 12.1457 48.7936 11.8408 48.5284 11.4431C48.2633 11.0416 48.1307 10.5567 48.1307 9.98855C48.1307 9.48855 48.2292 9.08324 48.4261 8.77264C48.6231 8.45824 48.8864 8.21203 49.2159 8.034C49.5455 7.85597 49.9091 7.7234 50.3068 7.63627C50.7083 7.54537 51.1117 7.4734 51.517 7.42037C52.0473 7.35218 52.4773 7.30105 52.8068 7.26696C53.1402 7.22908 53.3826 7.16658 53.5341 7.07946C53.6894 6.99234 53.767 6.84082 53.767 6.62491V6.57946C53.767 6.01885 53.6136 5.58324 53.3068 5.27264C53.0038 4.96203 52.5436 4.80673 51.9261 4.80673C51.286 4.80673 50.7841 4.94688 50.4205 5.22718C50.0568 5.50749 49.8011 5.80673 49.6534 6.12491L48.3807 5.67037C48.608 5.14006 48.911 4.72718 49.2898 4.43173C49.6723 4.13249 50.089 3.92415 50.5398 3.80673C50.9943 3.68552 51.4413 3.62491 51.8807 3.62491C52.161 3.62491 52.483 3.659 52.8466 3.72718C53.214 3.79158 53.5682 3.92605 53.9091 4.13059C54.2538 4.33514 54.5398 4.64385 54.767 5.05673C54.9943 5.46961 55.108 6.02264 55.108 6.71582V12.4658H53.767V11.284H53.6989C53.608 11.4734 53.4564 11.676 53.2443 11.892C53.0322 12.1079 52.75 12.2916 52.3977 12.4431C52.0455 12.5946 51.6155 12.6704 51.108 12.6704ZM51.3125 11.4658C51.8428 11.4658 52.2898 11.3617 52.6534 11.1533C53.0208 10.945 53.2973 10.676 53.483 10.3465C53.6723 10.017 53.767 9.67037 53.767 9.30673V8.07946C53.7102 8.14764 53.5852 8.21014 53.392 8.26696C53.2027 8.31999 52.983 8.36734 52.733 8.409C52.4867 8.44688 52.2462 8.48097 52.0114 8.51127C51.7803 8.53779 51.5928 8.56052 51.4489 8.57946C51.1004 8.62491 50.7746 8.69877 50.4716 8.80105C50.1723 8.89953 49.9299 9.04915 49.7443 9.24991C49.5625 9.44688 49.4716 9.71582 49.4716 10.0567C49.4716 10.5226 49.6439 10.8749 49.9886 11.1135C50.3371 11.3484 50.7784 11.4658 51.3125 11.4658ZM57.5554 12.4658V3.73855H58.8509V5.05673H58.9418C59.1009 4.62491 59.3887 4.27453 59.8054 4.00559C60.2221 3.73665 60.6918 3.60218 61.2145 3.60218C61.313 3.60218 61.4361 3.60408 61.5838 3.60787C61.7315 3.61165 61.8433 3.61734 61.919 3.62491V4.98855C61.8736 4.97718 61.7694 4.96014 61.6065 4.93741C61.4474 4.9109 61.2789 4.89764 61.1009 4.89764C60.6766 4.89764 60.2978 4.98665 59.9645 5.16468C59.6349 5.33893 59.3736 5.58135 59.1804 5.89196C58.991 6.19877 58.8963 6.54915 58.8963 6.94309V12.4658H57.5554ZM64.6378 15.7385C64.4105 15.7385 64.2079 15.7196 64.0298 15.6817C63.8518 15.6476 63.7287 15.6135 63.6605 15.5795L64.0014 14.3976C64.3272 14.481 64.6151 14.5113 64.8651 14.4885C65.1151 14.4658 65.3366 14.3541 65.5298 14.1533C65.7268 13.9564 65.9067 13.6363 66.0696 13.1931L66.3196 12.5113L63.0923 3.73855H64.5469L66.956 10.6931H67.0469L69.456 3.73855H70.9105L67.206 13.7385C67.0393 14.1893 66.8329 14.5624 66.5866 14.8579C66.3404 15.1571 66.0545 15.3787 65.7287 15.5226C65.4067 15.6666 65.0431 15.7385 64.6378 15.7385Z" fill="#CDCDCD"/>
</svg>
