<svg width="279" height="49" viewBox="0 0 279 49" fill="none" xmlns="http://www.w3.org/2000/svg">
<path d="M13.2955 16.9545V31.5H11.5909L3.66477 20.0795H3.52273V31.5H1.76136V16.9545H3.46591L11.4205 28.4034H11.5625V16.9545H13.2955ZM21.0245 31.7273C20.0397 31.7273 19.1755 31.4929 18.4322 31.0241C17.6935 30.5554 17.1159 29.8996 16.6992 29.0568C16.2873 28.214 16.0813 27.2292 16.0813 26.1023C16.0813 24.9659 16.2873 23.974 16.6992 23.1264C17.1159 22.2789 17.6935 21.6207 18.4322 21.152C19.1755 20.6832 20.0397 20.4489 21.0245 20.4489C22.0094 20.4489 22.8711 20.6832 23.6097 21.152C24.3531 21.6207 24.9308 22.2789 25.3427 23.1264C25.7594 23.974 25.9677 24.9659 25.9677 26.1023C25.9677 27.2292 25.7594 28.214 25.3427 29.0568C24.9308 29.8996 24.3531 30.5554 23.6097 31.0241C22.8711 31.4929 22.0094 31.7273 21.0245 31.7273ZM21.0245 30.2216C21.7726 30.2216 22.3881 30.0298 22.8711 29.6463C23.354 29.2628 23.7115 28.7585 23.9435 28.1335C24.1755 27.5085 24.2915 26.8314 24.2915 26.1023C24.2915 25.3731 24.1755 24.6937 23.9435 24.0639C23.7115 23.4342 23.354 22.9252 22.8711 22.5369C22.3881 22.1487 21.7726 21.9545 21.0245 21.9545C20.2764 21.9545 19.6609 22.1487 19.1779 22.5369C18.695 22.9252 18.3375 23.4342 18.1055 24.0639C17.8735 24.6937 17.7575 25.3731 17.7575 26.1023C17.7575 26.8314 17.8735 27.5085 18.1055 28.1335C18.3375 28.7585 18.695 29.2628 19.1779 29.6463C19.6609 30.0298 20.2764 30.2216 21.0245 30.2216ZM33.2706 20.5909V22.0114H27.6172V20.5909H33.2706ZM29.2649 17.9773H30.9411V28.375C30.9411 28.8485 31.0097 29.2036 31.147 29.4403C31.2891 29.6723 31.469 29.8286 31.6868 29.9091C31.9093 29.9848 32.1437 30.0227 32.3899 30.0227C32.5746 30.0227 32.7261 30.0133 32.8445 29.9943C32.9628 29.9706 33.0575 29.9517 33.1286 29.9375L33.4695 31.4432C33.3558 31.4858 33.1972 31.5284 32.9936 31.571C32.79 31.6184 32.532 31.642 32.2195 31.642C31.746 31.642 31.282 31.5402 30.8274 31.3366C30.3776 31.133 30.0036 30.8229 29.7053 30.4062C29.4117 29.9896 29.2649 29.464 29.2649 28.8295V17.9773ZM44.6271 31.7557C43.9358 31.7557 43.3085 31.6255 42.745 31.3651C42.1816 31.0999 41.7341 30.7188 41.4027 30.2216C41.0713 29.7197 40.9055 29.1136 40.9055 28.4034C40.9055 27.7784 41.0286 27.2718 41.2749 26.8835C41.5211 26.4905 41.8501 26.1828 42.2621 25.9602C42.674 25.7377 43.1286 25.572 43.6257 25.4631C44.1276 25.3494 44.6319 25.2595 45.1385 25.1932C45.8014 25.108 46.3388 25.044 46.7507 25.0014C47.1674 24.9541 47.4704 24.8759 47.6598 24.767C47.8539 24.6581 47.951 24.4687 47.951 24.1989V24.142C47.951 23.4413 47.7592 22.8968 47.3757 22.5085C46.9969 22.1203 46.4216 21.9261 45.6499 21.9261C44.8497 21.9261 44.2223 22.1013 43.7678 22.4517C43.3132 22.8021 42.9936 23.1761 42.8089 23.5739L41.218 23.0057C41.5021 22.3428 41.8809 21.8267 42.3544 21.4574C42.8326 21.0833 43.3535 20.8229 43.9169 20.6761C44.4851 20.5246 45.0438 20.4489 45.593 20.4489C45.9434 20.4489 46.3459 20.4915 46.8004 20.5767C47.2597 20.6572 47.7024 20.8253 48.1286 21.081C48.5594 21.3366 48.9169 21.7225 49.201 22.2386C49.4851 22.7547 49.6271 23.446 49.6271 24.3125V31.5H47.951V30.0227H47.8658C47.7521 30.2595 47.5627 30.5128 47.2976 30.7827C47.0324 31.0526 46.6797 31.2822 46.2393 31.4716C45.799 31.661 45.2616 31.7557 44.6271 31.7557ZM44.8828 30.25C45.5457 30.25 46.1044 30.1198 46.5589 29.8594C47.0182 29.599 47.3639 29.2628 47.5959 28.8509C47.8326 28.4389 47.951 28.0057 47.951 27.5511V26.017C47.88 26.1023 47.7237 26.1804 47.4822 26.2514C47.2455 26.3177 46.9709 26.3769 46.6584 26.429C46.3506 26.4763 46.05 26.5189 45.7564 26.5568C45.4676 26.59 45.2332 26.6184 45.0533 26.642C44.6177 26.6989 44.2105 26.7912 43.8317 26.919C43.4576 27.0421 43.1546 27.2292 42.9226 27.4801C42.6953 27.7263 42.5817 28.0625 42.5817 28.4886C42.5817 29.071 42.7971 29.5114 43.228 29.8097C43.6636 30.1032 44.2152 30.25 44.8828 30.25ZM64.1069 16.9545H65.8683V27.3523C65.8683 28.2803 65.6978 29.0687 65.3569 29.7173C65.016 30.366 64.5354 30.8584 63.9151 31.1946C63.2949 31.5308 62.5633 31.6989 61.7205 31.6989C60.9251 31.6989 60.2172 31.5545 59.5969 31.2656C58.9767 30.9721 58.489 30.5554 58.1339 30.0156C57.7788 29.4759 57.6012 28.8343 57.6012 28.0909H59.3342C59.3342 28.5028 59.436 28.8627 59.6396 29.1705C59.8479 29.4735 60.132 29.7102 60.4918 29.8807C60.8517 30.0511 61.2612 30.1364 61.7205 30.1364C62.2272 30.1364 62.658 30.0298 63.0131 29.8168C63.3683 29.6037 63.6381 29.2912 63.8228 28.8793C64.0122 28.4626 64.1069 27.9536 64.1069 27.3523V16.9545ZM73.6026 31.7273C72.6178 31.7273 71.7537 31.4929 71.0103 31.0241C70.2717 30.5554 69.694 29.8996 69.2773 29.0568C68.8654 28.214 68.6594 27.2292 68.6594 26.1023C68.6594 24.9659 68.8654 23.974 69.2773 23.1264C69.694 22.2789 70.2717 21.6207 71.0103 21.152C71.7537 20.6832 72.6178 20.4489 73.6026 20.4489C74.5875 20.4489 75.4492 20.6832 76.1879 21.152C76.9312 21.6207 77.5089 22.2789 77.9208 23.1264C78.3375 23.974 78.5458 24.9659 78.5458 26.1023C78.5458 27.2292 78.3375 28.214 77.9208 29.0568C77.5089 29.8996 76.9312 30.5554 76.1879 31.0241C75.4492 31.4929 74.5875 31.7273 73.6026 31.7273ZM73.6026 30.2216C74.3507 30.2216 74.9663 30.0298 75.4492 29.6463C75.9322 29.2628 76.2897 28.7585 76.5217 28.1335C76.7537 27.5085 76.8697 26.8314 76.8697 26.1023C76.8697 25.3731 76.7537 24.6937 76.5217 24.0639C76.2897 23.4342 75.9322 22.9252 75.4492 22.5369C74.9663 22.1487 74.3507 21.9545 73.6026 21.9545C72.8545 21.9545 72.239 22.1487 71.756 22.5369C71.2731 22.9252 70.9156 23.4342 70.6836 24.0639C70.4516 24.6937 70.3356 25.3731 70.3356 26.1023C70.3356 26.8314 70.4516 27.5085 70.6836 28.1335C70.9156 28.7585 71.2731 29.2628 71.756 29.6463C72.239 30.0298 72.8545 30.2216 73.6026 30.2216ZM81.1044 31.5V20.5909H82.7805V31.5H81.1044ZM81.9567 18.7727C81.63 18.7727 81.3482 18.6615 81.1115 18.4389C80.8795 18.2164 80.7635 17.9489 80.7635 17.6364C80.7635 17.3239 80.8795 17.0563 81.1115 16.8338C81.3482 16.6113 81.63 16.5 81.9567 16.5C82.2834 16.5 82.5627 16.6113 82.7947 16.8338C83.0315 17.0563 83.1499 17.3239 83.1499 17.6364C83.1499 17.9489 83.0315 18.2164 82.7947 18.4389C82.5627 18.6615 82.2834 18.7727 81.9567 18.7727ZM87.5266 24.9375V31.5H85.8505V20.5909H87.4698V22.2955H87.6119C87.8675 21.7415 88.2558 21.2964 88.7766 20.9602C89.2975 20.6193 89.9698 20.4489 90.7937 20.4489C91.5323 20.4489 92.1786 20.6004 92.7326 20.9034C93.2866 21.2017 93.7174 21.6562 94.0252 22.267C94.333 22.8731 94.4869 23.6402 94.4869 24.5682V31.5H92.8107V24.6818C92.8107 23.8248 92.5882 23.1572 92.1431 22.679C91.698 22.196 91.0872 21.9545 90.3107 21.9545C89.7757 21.9545 89.2975 22.0705 88.8761 22.3026C88.4594 22.5346 88.1303 22.8731 87.8888 23.3182C87.6474 23.7633 87.5266 24.303 87.5266 24.9375ZM110.05 27.0398V20.5909H111.726V31.5H110.05V29.6534H109.936C109.68 30.2074 109.283 30.6785 108.743 31.0668C108.203 31.4503 107.521 31.642 106.697 31.642C106.016 31.642 105.41 31.4929 104.879 31.1946C104.349 30.8916 103.932 30.437 103.629 29.831C103.326 29.2202 103.175 28.4508 103.175 27.5227V20.5909H104.851V27.4091C104.851 28.2045 105.073 28.839 105.518 29.3125C105.968 29.786 106.541 30.0227 107.237 30.0227C107.654 30.0227 108.078 29.9162 108.509 29.7031C108.944 29.4901 109.309 29.1634 109.602 28.723C109.901 28.2827 110.05 27.7216 110.05 27.0398ZM122.523 23.0341L121.017 23.4602C120.923 23.2093 120.783 22.9654 120.598 22.7287C120.418 22.4872 120.172 22.2884 119.86 22.1321C119.547 21.9759 119.147 21.8977 118.659 21.8977C117.992 21.8977 117.435 22.0516 116.99 22.3594C116.55 22.6624 116.33 23.0483 116.33 23.517C116.33 23.9337 116.481 24.2628 116.784 24.5043C117.087 24.7457 117.561 24.947 118.205 25.108L119.824 25.5057C120.8 25.7424 121.526 26.1046 122.005 26.5923C122.483 27.0753 122.722 27.6979 122.722 28.4602C122.722 29.0852 122.542 29.6439 122.182 30.1364C121.827 30.6288 121.33 31.017 120.691 31.3011C120.051 31.5852 119.308 31.7273 118.461 31.7273C117.348 31.7273 116.427 31.4858 115.698 31.0028C114.969 30.5199 114.507 29.8144 114.313 28.8864L115.904 28.4886C116.055 29.0758 116.342 29.5161 116.763 29.8097C117.189 30.1032 117.746 30.25 118.432 30.25C119.213 30.25 119.834 30.0843 120.293 29.7528C120.757 29.4167 120.989 29.0142 120.989 28.5455C120.989 28.1667 120.856 27.8494 120.591 27.5938C120.326 27.3333 119.919 27.1392 119.37 27.0114L117.551 26.5852C116.552 26.3485 115.819 25.9815 115.35 25.4844C114.886 24.9825 114.654 24.3551 114.654 23.6023C114.654 22.9867 114.827 22.4422 115.172 21.9688C115.523 21.4953 115.998 21.1236 116.6 20.8537C117.206 20.5838 117.892 20.4489 118.659 20.4489C119.739 20.4489 120.587 20.6856 121.202 21.1591C121.822 21.6326 122.263 22.2576 122.523 23.0341ZM129.819 31.7273C128.768 31.7273 127.861 31.4953 127.099 31.0312C126.341 30.5625 125.756 29.9091 125.344 29.071C124.937 28.2282 124.734 27.2481 124.734 26.1307C124.734 25.0133 124.937 24.0284 125.344 23.1761C125.756 22.3191 126.329 21.6515 127.063 21.1733C127.802 20.6903 128.664 20.4489 129.648 20.4489C130.217 20.4489 130.778 20.5436 131.332 20.733C131.886 20.9223 132.39 21.2301 132.844 21.6562C133.299 22.0777 133.661 22.6364 133.931 23.3324C134.201 24.0284 134.336 24.8854 134.336 25.9034V26.6136H125.927V25.1648H132.631C132.631 24.5492 132.508 24 132.262 23.517C132.021 23.0341 131.675 22.6529 131.225 22.3736C130.78 22.0942 130.254 21.9545 129.648 21.9545C128.981 21.9545 128.403 22.1203 127.915 22.4517C127.433 22.7784 127.061 23.2045 126.8 23.7301C126.54 24.2557 126.41 24.8191 126.41 25.4205V26.3864C126.41 27.2102 126.552 27.9086 126.836 28.4815C127.125 29.0497 127.525 29.483 128.036 29.7812C128.548 30.0748 129.142 30.2216 129.819 30.2216C130.259 30.2216 130.657 30.16 131.012 30.0369C131.372 29.9091 131.682 29.7197 131.942 29.4688C132.203 29.2131 132.404 28.8958 132.546 28.517L134.165 28.9716C133.995 29.5208 133.709 30.0038 133.306 30.4205C132.904 30.8324 132.406 31.1544 131.815 31.3864C131.223 31.6136 130.558 31.7273 129.819 31.7273ZM136.886 31.5V20.5909H138.505V22.2386H138.619C138.817 21.6989 139.177 21.2609 139.698 20.9247C140.219 20.5885 140.806 20.4205 141.46 20.4205C141.583 20.4205 141.737 20.4228 141.921 20.4276C142.106 20.4323 142.246 20.4394 142.34 20.4489V22.1534C142.283 22.1392 142.153 22.1179 141.95 22.0895C141.751 22.0563 141.54 22.0398 141.317 22.0398C140.787 22.0398 140.314 22.151 139.897 22.3736C139.485 22.5914 139.158 22.8944 138.917 23.2827C138.68 23.6662 138.562 24.1042 138.562 24.5966V31.5H136.886ZM146.515 27.4091V27.3239C146.524 26.4195 146.619 25.6998 146.799 25.1648C146.979 24.6297 147.234 24.1965 147.566 23.8651C147.897 23.5336 148.295 23.2282 148.759 22.9489C149.038 22.7784 149.289 22.5772 149.512 22.3452C149.734 22.1084 149.909 21.8362 150.037 21.5284C150.17 21.2206 150.236 20.8797 150.236 20.5057C150.236 20.0417 150.127 19.6392 149.909 19.2983C149.692 18.9574 149.4 18.6946 149.036 18.5099C148.671 18.3253 148.266 18.233 147.821 18.233C147.433 18.233 147.059 18.3134 146.699 18.4744C146.339 18.6354 146.039 18.8887 145.797 19.2344C145.556 19.58 145.416 20.0322 145.378 20.5909H143.588C143.626 19.786 143.835 19.0971 144.213 18.5241C144.597 17.9512 145.101 17.5133 145.726 17.2102C146.356 16.9072 147.054 16.7557 147.821 16.7557C148.655 16.7557 149.379 16.9214 149.995 17.2528C150.615 17.5843 151.093 18.0388 151.429 18.6165C151.77 19.1941 151.941 19.8523 151.941 20.5909C151.941 21.1117 151.86 21.5829 151.699 22.0043C151.543 22.4257 151.316 22.8021 151.017 23.1335C150.724 23.465 150.369 23.7585 149.952 24.0142C149.535 24.2746 149.202 24.5492 148.951 24.8381C148.7 25.1222 148.517 25.4607 148.404 25.8537C148.29 26.2467 148.229 26.7367 148.219 27.3239V27.4091H146.515ZM147.424 31.6136C147.073 31.6136 146.773 31.4882 146.522 31.2372C146.271 30.9863 146.145 30.6856 146.145 30.3352C146.145 29.9848 146.271 29.6842 146.522 29.4332C146.773 29.1823 147.073 29.0568 147.424 29.0568C147.774 29.0568 148.075 29.1823 148.326 29.4332C148.577 29.6842 148.702 29.9848 148.702 30.3352C148.702 30.5672 148.643 30.7803 148.525 30.9744C148.411 31.1686 148.257 31.3248 148.063 31.4432C147.873 31.5568 147.66 31.6136 147.424 31.6136Z" fill="black"/>
<rect x="188" width="91" height="49" rx="8" fill="#2A3647"/>
<path d="M211.324 21.7102C211.278 21.2519 211.083 20.8958 210.739 20.642C210.394 20.3883 209.926 20.2614 209.335 20.2614C208.934 20.2614 208.595 20.3182 208.318 20.4318C208.042 20.5417 207.83 20.6951 207.682 20.892C207.538 21.089 207.466 21.3125 207.466 21.5625C207.458 21.7708 207.502 21.9527 207.597 22.108C207.695 22.2633 207.83 22.3977 208 22.5114C208.17 22.6212 208.367 22.7178 208.591 22.8011C208.814 22.8807 209.053 22.9489 209.307 23.0057L210.352 23.2557C210.86 23.3693 211.326 23.5208 211.75 23.7102C212.174 23.8996 212.542 24.1326 212.852 24.4091C213.163 24.6856 213.403 25.0114 213.574 25.3864C213.748 25.7614 213.837 26.1913 213.841 26.6761C213.837 27.3883 213.655 28.0057 213.295 28.5284C212.939 29.0473 212.424 29.4508 211.75 29.7386C211.08 30.0227 210.271 30.1648 209.324 30.1648C208.384 30.1648 207.566 30.0208 206.869 29.733C206.176 29.4451 205.634 29.0189 205.244 28.4545C204.858 27.8864 204.655 27.1837 204.636 26.3466H207.017C207.044 26.7367 207.155 27.0625 207.352 27.3239C207.553 27.5814 207.82 27.7765 208.153 27.9091C208.491 28.0379 208.871 28.1023 209.295 28.1023C209.712 28.1023 210.074 28.0417 210.381 27.9205C210.691 27.7992 210.932 27.6307 211.102 27.4148C211.273 27.1989 211.358 26.9508 211.358 26.6705C211.358 26.4091 211.28 26.1894 211.125 26.0114C210.973 25.8333 210.75 25.6818 210.455 25.5568C210.163 25.4318 209.805 25.3182 209.381 25.2159L208.114 24.8977C207.133 24.6591 206.358 24.286 205.79 23.7784C205.222 23.2708 204.939 22.5871 204.943 21.7273C204.939 21.0227 205.127 20.4072 205.506 19.8807C205.888 19.3542 206.413 18.9432 207.08 18.6477C207.746 18.3523 208.504 18.2045 209.352 18.2045C210.216 18.2045 210.97 18.3523 211.614 18.6477C212.261 18.9432 212.765 19.3542 213.125 19.8807C213.485 20.4072 213.67 21.017 213.682 21.7102H211.324ZM215.45 30V21.2727H217.871V30H215.45ZM216.666 20.1477C216.306 20.1477 215.998 20.0284 215.74 19.7898C215.486 19.5473 215.359 19.2576 215.359 18.9205C215.359 18.5871 215.486 18.3011 215.74 18.0625C215.998 17.8201 216.306 17.6989 216.666 17.6989C217.026 17.6989 217.333 17.8201 217.587 18.0625C217.844 18.3011 217.973 18.5871 217.973 18.9205C217.973 19.2576 217.844 19.5473 217.587 19.7898C217.333 20.0284 217.026 20.1477 216.666 20.1477ZM223.741 33.4545C222.957 33.4545 222.285 33.3466 221.724 33.1307C221.168 32.9186 220.724 32.6288 220.395 32.2614C220.065 31.8939 219.851 31.4811 219.753 31.0227L221.991 30.7216C222.06 30.8958 222.168 31.0587 222.315 31.2102C222.463 31.3617 222.658 31.483 222.901 31.5739C223.147 31.6686 223.446 31.7159 223.798 31.7159C224.325 31.7159 224.759 31.5871 225.099 31.3295C225.444 31.0758 225.616 30.6496 225.616 30.0511V28.4545H225.514C225.408 28.697 225.249 28.9261 225.037 29.142C224.825 29.358 224.552 29.5341 224.219 29.6705C223.885 29.8068 223.488 29.875 223.026 29.875C222.37 29.875 221.774 29.7235 221.236 29.4205C220.702 29.1136 220.276 28.6458 219.957 28.017C219.643 27.3845 219.486 26.5852 219.486 25.6193C219.486 24.6307 219.647 23.8049 219.969 23.142C220.291 22.4792 220.719 21.983 221.253 21.6534C221.791 21.3239 222.38 21.1591 223.02 21.1591C223.509 21.1591 223.918 21.2424 224.247 21.4091C224.577 21.572 224.842 21.7765 225.043 22.0227C225.247 22.2652 225.404 22.5038 225.514 22.7386H225.605V21.2727H228.009V30.0852C228.009 30.8277 227.827 31.4489 227.463 31.9489C227.099 32.4489 226.596 32.8239 225.952 33.0739C225.312 33.3277 224.575 33.4545 223.741 33.4545ZM223.793 28.0568C224.183 28.0568 224.512 27.9602 224.781 27.767C225.054 27.5701 225.262 27.2898 225.406 26.9261C225.554 26.5587 225.628 26.1193 225.628 25.608C225.628 25.0966 225.556 24.6534 225.412 24.2784C225.268 23.8996 225.06 23.6061 224.787 23.3977C224.514 23.1894 224.183 23.0852 223.793 23.0852C223.395 23.0852 223.06 23.1932 222.787 23.4091C222.514 23.6212 222.308 23.9167 222.168 24.2955C222.027 24.6742 221.957 25.1117 221.957 25.608C221.957 26.1117 222.027 26.5473 222.168 26.9148C222.312 27.2784 222.518 27.5606 222.787 27.7614C223.06 27.9583 223.395 28.0568 223.793 28.0568ZM232.355 24.9545V30H229.935V21.2727H232.241V22.8125H232.344C232.537 22.3049 232.861 21.9034 233.315 21.608C233.77 21.3087 234.321 21.1591 234.969 21.1591C235.575 21.1591 236.103 21.2917 236.554 21.5568C237.005 21.822 237.355 22.2008 237.605 22.6932C237.855 23.1818 237.98 23.7652 237.98 24.4432V30H235.56V24.875C235.563 24.3409 235.427 23.9242 235.151 23.625C234.874 23.322 234.493 23.1705 234.009 23.1705C233.683 23.1705 233.395 23.2405 233.145 23.3807C232.899 23.5208 232.705 23.7254 232.565 23.9943C232.429 24.2595 232.359 24.5795 232.355 24.9545ZM249.188 26.2841V21.2727H251.608V30H249.284V28.4148H249.193C248.996 28.9261 248.669 29.3371 248.21 29.6477C247.756 29.9583 247.201 30.1136 246.545 30.1136C245.962 30.1136 245.449 29.9811 245.006 29.7159C244.563 29.4508 244.216 29.0739 243.966 28.5852C243.72 28.0966 243.595 27.5114 243.591 26.8295V21.2727H246.011V26.3977C246.015 26.9129 246.153 27.3201 246.426 27.6193C246.699 27.9186 247.064 28.0682 247.523 28.0682C247.814 28.0682 248.087 28.0019 248.341 27.8693C248.595 27.733 248.799 27.5322 248.955 27.267C249.114 27.0019 249.191 26.6742 249.188 26.2841ZM253.544 33.2727V21.2727H255.93V22.7386H256.038C256.144 22.5038 256.298 22.2652 256.499 22.0227C256.703 21.7765 256.968 21.572 257.294 21.4091C257.624 21.2424 258.033 21.1591 258.521 21.1591C259.158 21.1591 259.745 21.3258 260.283 21.6591C260.821 21.9886 261.25 22.4867 261.572 23.1534C261.894 23.8163 262.055 24.6477 262.055 25.6477C262.055 26.6212 261.898 27.4432 261.584 28.1136C261.273 28.7803 260.849 29.286 260.311 29.6307C259.777 29.9716 259.179 30.142 258.516 30.142C258.046 30.142 257.646 30.0644 257.317 29.9091C256.991 29.7538 256.724 29.5587 256.516 29.3239C256.307 29.0852 256.148 28.8447 256.038 28.6023H255.964V33.2727H253.544ZM255.913 25.6364C255.913 26.1553 255.985 26.608 256.129 26.9943C256.273 27.3807 256.482 27.6818 256.754 27.8977C257.027 28.1098 257.358 28.2159 257.749 28.2159C258.143 28.2159 258.476 28.108 258.749 27.892C259.021 27.6723 259.228 27.3693 259.368 26.983C259.512 26.5928 259.584 26.1439 259.584 25.6364C259.584 25.1326 259.514 24.6894 259.374 24.3068C259.233 23.9242 259.027 23.625 258.754 23.4091C258.482 23.1932 258.146 23.0852 257.749 23.0852C257.355 23.0852 257.021 23.1894 256.749 23.3977C256.48 23.6061 256.273 23.9015 256.129 24.2841C255.985 24.6667 255.913 25.1174 255.913 25.6364Z" fill="white"/>
</svg>
